<svg xmlns="http://www.w3.org/2000/svg" xmlns:xlink="http://www.w3.org/1999/xlink" width="940" height="382.48"><defs><linearGradient id="e" x1="587.86" y1="177.69" x2="706.87" y2="177.69" gradientUnits="userSpaceOnUse"><stop offset="0" stop-color="#dfe9f8"/><stop offset=".21" stop-color="#dfe9f8" stop-opacity=".99"/><stop offset=".34" stop-color="#dfe9f8" stop-opacity=".95"/><stop offset=".46" stop-color="#dfe9f8" stop-opacity=".89"/><stop offset=".56" stop-color="#dfe9f8" stop-opacity=".81"/><stop offset=".66" stop-color="#dfe9f8" stop-opacity=".7"/><stop offset=".75" stop-color="#dfe9f8" stop-opacity=".56"/><stop offset=".84" stop-color="#dfe9f8" stop-opacity=".4"/><stop offset=".92" stop-color="#dfe9f8" stop-opacity=".22"/><stop offset="1" stop-color="#dfe9f8" stop-opacity=".01"/><stop offset="1" stop-color="#dfe9f8" stop-opacity="0"/></linearGradient><linearGradient id="f" x1="2337.98" y1="156.12" x2="2376.81" y2="198.96" gradientTransform="matrix(-1 0 0 1 2753.23 0)" gradientUnits="userSpaceOnUse"><stop offset="0" stop-color="#6e7075"/><stop offset=".06" stop-color="#696b71"/><stop offset=".4" stop-color="#54545e"/><stop offset=".72" stop-color="#474652"/><stop offset="1" stop-color="#43414e"/></linearGradient><linearGradient id="b" x1="2315.68" y1="211.17" x2="2295.91" y2="233.09" gradientTransform="matrix(-1 0 0 1 2753.23 0)" gradientUnits="userSpaceOnUse"><stop offset="0" stop-color="#5333ed" stop-opacity=".4"/><stop offset="1" stop-color="#2cd4d9" stop-opacity="0"/></linearGradient><linearGradient id="a" x1="2353.46" y1="171.96" x2="2398.55" y2="199.55" gradientTransform="matrix(-1 0 0 1 2753.23 0)" gradientUnits="userSpaceOnUse"><stop offset="0" stop-color="#e88a56"/><stop offset="1" stop-color="#ffc398"/></linearGradient><linearGradient id="g" x1="2479.98" y1="166.49" x2="2482.73" y2="240.06" xlink:href="#a"/><linearGradient id="h" x1="338.84" y1="211.56" x2="361.65" y2="232.64" xlink:href="#a"/><linearGradient id="i" x1="430.04" y1="193.61" x2="402.71" y2="213.61" xlink:href="#a"/><linearGradient id="j" x1="2459.35" y1="125.88" x2="2447.45" y2="96.37" xlink:href="#a"/><linearGradient id="k" x1="2727.04" y1="383.96" x2="2710.92" y2="382.11" gradientTransform="scale(-1 1) rotate(-16.3 119.8 10871.65)" xlink:href="#a"/><linearGradient id="d" x1="331.85" y1="79.1" x2="320.19" y2="79.43" gradientUnits="userSpaceOnUse"><stop offset="0" stop-color="#150773"/><stop offset="1" stop-color="#5333ed"/></linearGradient><linearGradient id="l" x1="176.37" y1="330.52" x2="188.82" y2="354.05" xlink:href="#b"/><linearGradient id="c" x1="143.74" y1="252.43" x2="136.5" y2="270.74" gradientUnits="userSpaceOnUse"><stop offset="0" stop-color="#9e684d"/><stop offset=".19" stop-color="#a67053"/><stop offset=".62" stop-color="#b37e5c"/><stop offset="1" stop-color="#b7835f"/></linearGradient><linearGradient id="m" x1="237.82" y1="286.13" x2="228.41" y2="309.91" xlink:href="#c"/><linearGradient id="n" x1="138.6" y1="325.43" x2="184.1" y2="309.18" xlink:href="#c"/><linearGradient id="o" x1="171.98" y1="297.08" x2="223.48" y2="139.08" gradientUnits="userSpaceOnUse"><stop offset="0" stop-color="#5333ed"/><stop offset=".05" stop-color="#5f43ee"/><stop offset=".22" stop-color="#8675f1"/><stop offset=".4" stop-color="#a69ff4"/><stop offset=".56" stop-color="#bfbff5"/><stop offset=".72" stop-color="#d1d6f7"/><stop offset=".87" stop-color="#dbe4f8"/><stop offset="1" stop-color="#dfe9f8"/></linearGradient><linearGradient id="p" x1="167.42" y1="165.87" x2="155.75" y2="166.19" xlink:href="#d"/><linearGradient id="r" x1="194.69" y1="181.74" x2="183.03" y2="182.07" xlink:href="#d"/><radialGradient id="q" cx="169.97" cy="167.56" r="11.13" gradientTransform="matrix(-.01 1 -.52 -.01 258.59 -1.23)" xlink:href="#d"/></defs><g data-name="figures and interactions"><path fill="none" stroke-miterlimit="10" stroke="url(#e)" d="M587.86 177.69h119.01"/><path fill="none" stroke="#bbd0f2" stroke-miterlimit="10" d="M460.13 177.69h42.58"/><path fill="#43414e" d="m332.93 188.59 83.25 48.07 51.55-30.04v-3.81l-83.26-48.07-51.54 29.92v3.93z"/><path fill="#6e7075" d="m332.93 184.66 83.25 48.06 51.55-29.91-83.26-48.07-51.54 29.92z"/><path fill="#43414e" d="m384.29 87.79-1.98 1.15 1.98 65.69 81.46 49.32 1.98-1.14v-66.84l-83.44-48.18z"/><path fill="url(#f)" d="m382.31 88.94.18 66.94 83.26 48.07v-66.84l-83.44-48.17z"/><path fill="#84828e" d="m360.89 196.65 30.67 17.7 18.98-11.02-30.67-17.7-18.98 11.02z"/><path fill="#43414e" d="m381.41 184.48 30.66 17.7 4.8-2.75-30.66-17.71-4.8 2.76zm2.2-4.27-4.27-2.46-4.79 2.76 4.26 2.46 4.8-2.76zm-7.9-11.67-6.06-3.48-4.79 2.76 6.05 3.47 4.8-2.75zm12.53-7.22-6.06-3.47-4.79 2.76 6.05 3.47 4.8-2.76zm59.54 48.59-8.58-4.9-4.79 2.76 8.57 4.9 4.8-2.76zm6.1-3.72-11.14-6.28-4.79 2.76 11.13 6.28 4.8-2.76zm6.25-3.36-8.58-4.9-4.79 2.76 8.57 4.89 4.8-2.75zm-87.78-29.07-4.28-2.47-4.79 2.76 4.27 2.47 4.8-2.76zm5.66 3.27-4.27-2.47-4.79 2.76 4.26 2.46 4.8-2.75zm26.03 7.66-4.27-2.47-4.79 2.76 4.26 2.46 4.8-2.75zm-22.63-13.02-4.27-2.47-4.79 2.76 4.26 2.47 4.8-2.76zm5.66 3.27-4.27-2.47-4.79 2.76 4.26 2.46 4.8-2.75zm5.7 3.29-4.27-2.46-4.79 2.76 4.27 2.46 4.79-2.76zm5.67 3.27-4.28-2.47-4.79 2.76 4.27 2.47 4.8-2.76zm33.74 19.48-4.27-2.46-4.79 2.76 4.26 2.46 4.8-2.76zm5.59 3.24-4.27-2.47-4.8 2.76 4.27 2.47 4.8-2.76zm-28.22-16.25-4.27-2.47-4.79 2.76 4.26 2.46 4.8-2.75zm5.66 3.27-4.27-2.47-4.79 2.76 4.27 2.46 4.79-2.75zm5.71 3.29-4.28-2.47-4.79 2.77 4.27 2.46 4.8-2.76zm5.66 3.27-4.27-2.47-4.8 2.76 4.27 2.47 4.8-2.76zm-19.18-18.24-4.27-2.46-4.79 2.76 4.26 2.46 4.8-2.76zm-22.63-13.01-4.27-2.47-4.79 2.76 4.26 2.46 4.8-2.75zm5.67 3.26-4.28-2.46-4.79 2.76 4.27 2.46 4.8-2.76zm5.7 3.3-4.28-2.47-4.79 2.77 4.27 2.46 4.8-2.76zm5.66 3.27-4.27-2.47-4.79 2.76 4.26 2.46 4.8-2.75zm33.74 19.48-4.27-2.46-4.79 2.76 4.26 2.46 4.8-2.76zm5.59 3.24-4.27-2.47-4.79 2.76 4.26 2.46 4.8-2.75zm-28.21-16.25-4.28-2.47-4.79 2.76 4.27 2.46 4.8-2.75zm5.66 3.26-4.28-2.46-4.79 2.76 4.27 2.46 4.8-2.76zm5.7 3.3-4.27-2.47-4.8 2.76 4.27 2.46 4.8-2.75zm5.66 3.27-4.27-2.47-4.79 2.76 4.26 2.46 4.8-2.75zm-13.44-15.09-4.28-2.47-4.79 2.76 4.27 2.46 4.8-2.75zm-22.63-13.02-4.27-2.47-4.8 2.76 4.27 2.46 4.8-2.75zm5.66 3.27-4.27-2.47-4.79 2.76 4.26 2.46 4.8-2.75zm5.7 3.29-4.27-2.46-4.79 2.76 4.26 2.46 4.8-2.76zm5.66 3.27-4.27-2.47-4.79 2.76 4.26 2.47 4.8-2.76zm33.75 19.48-4.28-2.46-4.79 2.76 4.27 2.46 4.8-2.76zm5.59 3.24-4.28-2.47-4.79 2.76 4.27 2.47 4.8-2.76zm-28.22-16.25-4.27-2.47-4.79 2.76 4.26 2.46 4.8-2.75zm5.66 3.26-4.27-2.46-4.79 2.76 4.26 2.46 4.8-2.76zm5.7 3.3-4.27-2.47-4.79 2.76 4.26 2.47 4.8-2.76zm5.67 3.27-4.28-2.47-4.79 2.76 4.27 2.46 4.8-2.75zm-16.44 11.99-4.28-2.46-4.79 2.76 4.27 2.46 4.8-2.76zm5.66 3.27-4.27-2.47-4.79 2.76 4.26 2.47 4.8-2.76zm5.7 3.3-4.27-2.47-4.79 2.76 4.26 2.46 4.8-2.75zm5.66 3.26-4.27-2.46-4.79 2.76 4.26 2.46 4.8-2.76z"/><path fill="url(#b)" d="m467.73 206.62 22.13 13.37-50.82 29.35-22.86-12.68 51.55-30.04z"/><path fill="#150773" d="m463.42 138.54-60.55-34.95v61.54l60.55 34.96v-61.55z"/><path fill="#0c022f" d="M384.18 92.81v61.54l18.69 10.78v-61.54l-18.69-10.78z"/><path fill="#fff" d="m407.15 140.17 20.49 11.89v-1.78l-20.49-11.88v1.77z"/><path fill="#2cd4d9" d="m407.15 152.01 20.49 11.88v-1.77l-20.49-11.89v1.78z"/><path fill="#fff" d="m407.15 143.44 20.49 11.89v-1.78l-20.49-11.89v1.78z"/><path fill="#5333ed" d="m407.15 131.07 20.49 11.89v-1.78l-20.49-11.88v1.77z"/><path fill="#2cd4d9" d="m407.15 113.29 41.93 24.27v-1.78l-41.93-24.26v1.77zm0 3.62 26.75 15.46v-1.78l-26.75-15.46v1.78zm0 31.9 26.75 15.46v-1.78l-26.75-15.46v1.78z"/><path fill="#5333ed" d="m407.15 160.63 20.49 11.88v-1.78l-20.49-11.88v1.78zm0-3.2 26.75 15.46v-1.78l-26.75-15.46v1.78zm0-23.09 20.49 11.89v-1.78l-20.49-11.89v1.78z"/><path fill="#fff" d="m407.15 122.58 13.49 7.83v-1.78l-13.49-7.82v1.77zm0 3.27 13.49 7.83v-1.78l-13.49-7.83v1.78z"/><path d="M353.79 200.64s15.94 6.5 25.86 2.88 6.55-5.48 10.79-6.26-1.65-3.55-6.37-1-11.07-.46-11.07-.46 9.06-4 13.8-9.81l3.94-3.92s4.53 2.31 7.49 1.18a.53.53 0 0 0 .07-1l-7.64-4.24a1.41 1.41 0 0 0-1.19-.09l-9 4.18 5.7-7.27s5 2.89 8.88 1.82a.55.55 0 0 0 .14-1L394 175a1.69 1.69 0 0 0 .91-.41.6.6 0 0 0-.07-1l-8.36-5a1.58 1.58 0 0 0-1.53-.06l-10.64 5.38 2-3.85a.6.6 0 0 1 .89-.2l.51.37a1.83 1.83 0 0 0 1.65.26l1.06-.35a.31.31 0 0 0 .1-.53l-3.45-2.77a1.42 1.42 0 0 0-2 .16c-1.87 2.1-6.27 6.84-9.3 8.32-3.92 1.91-12.9 7.59-18.53 15.69z" fill="url(#a)"/><circle cx="344.03" cy="56.46" r="9.63" fill="#0c022f"/><path d="M251.81 233.43c-37.12-7.54-22.58-87.43-22.58-87.43l28.45 19.8s-6.63 40.43.93 40.43c18.83 0 58.66-14.81 58.66-14.81 2.37-4.88.88 13.87.88 13.87s-47.1 32.05-66.34 28.14z" fill="url(#g)"/><path d="m229.23 146 28.45 19.8-11.94 28.4c-4.67-1.23-13.44-3.38-18.12-10.34a16.44 16.44 0 0 1-1.17-2.07 208 208 0 0 1 2.78-35.79z" fill="#e88a56"/><path d="M343.18 144.73c-.19-.11-62.54-37.6-74.21-44.33l-.55-.32-1.82-1a8.51 8.51 0 0 0-2.36-1.08c-11.62-5-23.34-3.66-26.29 3-6.05 7.64-12.06 39.41-12.37 49.18s-2.76 17.07 2 24.11 9.51 10.62 14.18 11.85c0 0 2.26 13.42 8.17 37.83 3 12.31 12.11 26.6 30.8 37.39 22.31 12.88 46.81 13.09 53.86 0 5-9.24-1.46-19.79 0-32.78 2.68-23.26 17.09-56.44 17.09-56.44 2.88-9.81-1.11-23.14-8.5-27.41z" fill="#2cd4d9"/><path d="M361.85 279.67c-34.45-.82-40.36-61.84-40.36-61.84L351.4 206s3 45 11 42.95c4.74-1.23 26.62-38.07 26.62-38.07 13.84-10.09 9.5 12.65 9.5 12.65s-15.15 56.65-36.67 56.14z" fill="url(#h)"/><path d="M398.51 223.57c2.15-.38 6.26 0 12-4.46l20.84-11.26s4 1.81 7.26-.22a.64.64 0 0 0-.09-1.11l-7.43-3.52-5.63 1.64 6.18-4.72 1.79 1.31a1.31 1.31 0 0 0 2.05-.74 2.73 2.73 0 0 0-.7-2.64 22.39 22.39 0 0 0-2.53-1.57 1.29 1.29 0 0 0-.66-1.88 7.76 7.76 0 0 0-3.53-1c-1.91.07-7.26 2.26-7.26 2.26l4.59-4.39a2.47 2.47 0 0 0-.62-3.46c-2-1.58-4.4.51-4.4.51l-5.24 2.84c1-1.39.54-2.72.34-2.76-1.13-.22-20.4 3.88-26.46 22.51-.01.01-2.5 14.8 9.5 12.66zm12.61-30.22-1.85 1v-.23c0-.08.89-.48 1.85-.78z" fill="url(#i)"/><path d="M344.85 82.73V94.2a2.59 2.59 0 0 1-2.59 2.59h-3.69z" fill="#eba87c"/><path d="M289.13 92.78s-8.48-25.85.25-50.31 44.31-8.89 50.24-2.59 12.63 17.6 7.33 37.06a108.92 108.92 0 0 1-15.38 33s-4 8.84-11.23 3.28z" fill="#ffc398"/><path d="m280.51 110.47 10.05-20.64a5.94 5.94 0 0 1 .37-.77c2.79-4.83 11.83-4.83 20.19 0 8 4.59 12.43 11.9 10.44 16.76v.06a6 6 0 0 1-.32.66l-.06.08-10.33 20.21z" fill="url(#j)"/><path d="M301.76 113.39c-8.52-5.73-18.28-12.22-22.36-11.34 0 0-3.72.28-4.7 1.72a5.08 5.08 0 0 0 0 2.37c.8 5.16 13.57 13.06 22.59 17 9.91 4.36 17.17 3.68 24.44 8.7 0 .01-3.13-7.12-19.97-18.45z" fill="#18a0aa"/><circle cx="324.82" cy="61.49" r="16.28" fill="#0c022f"/><path d="m347 51.78 4 9.71s-5.71 0-13.06-9.71l-20.74 1-17.66-28.28s12.67-3.34 24.15.84A41.71 41.71 0 0 1 347 47.2z" fill="#0c022f"/><circle cx="316.33" cy="78.57" r="8.71" fill="#0c022f"/><path d="M353.19 223.5a38.49 38.49 0 0 1-7.5 5.61c-7.75 4.48-15.94 5.85-21.49 4.14a130.32 130.32 0 0 1-2.71-15.42L351.4 206s.55 8.25 1.79 17.5z" fill="#e88a56"/><path d="M317 218.68a10.08 10.08 0 0 1 0-2.89c-.09-7.7-.24-28.24.75-30.25 1.22-2.48.65-15.45 11.23-24.44l19.64-10.87s5.88 9.71 9.32 29.59c.52 3 1.49 17.79 1.72 21.47 0 .26 0 .53.05.8.12 6.24-5.57 14.1-14.63 19.33-11.21 6.47-23.33 6.47-27.07 0a8.16 8.16 0 0 1-1-2.76z" fill="#2cd4d9"/><path fill="#5333ed" d="m397.75 226.98-1.43 4.55-15.09-8.38 2.42-3.99 14.1 7.82z"/><path d="M391.15 218.38c1.78 1 1.78 4.36 0 7.44s-4.67 4.75-6.45 3.72l-1.2-.69a10.05 10.05 0 0 1 6.5-11.16z" fill="#120667"/><ellipse cx="386.73" cy="223.27" rx="6.45" ry="3.72" transform="matrix(.5 -.87 .87 .5 .01 446.56)" fill="#dfe9f8"/><ellipse cx="386.73" cy="223.27" rx=".95" ry=".55" transform="matrix(.5 -.87 .87 .5 .01 446.56)" fill="#120667"/><path fill="#120667" d="m386.844 222.798 2.39-4.14.25.146-2.39 4.14zm.012.257 2.645-.489.053.286-2.645.488z"/><path d="M314.81 28.63s-10.84-5.72-19-3-15.05 10.24-17.41 26.7 10 36.79 10 36.79 2.38-4.8 5.29-4.22 8 4.46 10.48 9.31 5.18-7.32 12.17-6.93l10-23.92z" fill="#0c022f"/><path d="M330.23 82.37s1.52-6.57-2-9.65-8.86-1.33-8.24 5.5 2.66 12.43 5.85 11.43 4.39-7.28 4.39-7.28z" fill="url(#k)"/><path d="M328.58 76.06s-2-2.53-4.08-1.79-2 4.32-2 4.32 1.93-.15 2.36 4.51c.07.77-.25 2.29.56 3s1.85-.93 2.59-2.9a3.43 3.43 0 0 1-2.43-3.2c0-1.51.62-2.59 2-2.19-.04-.02 1.65-.62 1-1.75z" fill="#e88a56"/><path d="M326.1 64.57h4s4.39 7.51 4.39 14.58-4 14.58-4 14.58h-4.39c-4.65 0-8.42-6.53-8.42-14.58s3.76-14.58 8.42-14.58z" fill="#5333ed"/><ellipse cx="330.13" cy="79.15" rx="8.42" ry="14.58" fill="url(#d)"/><ellipse cx="332.21" cy="79.15" rx="3.91" ry="6.78" fill="#5333ed"/><path fill="#5333ed" d="m332.21 85.93 4.62-.54V72.92l-4.62-.54v13.55z"/><ellipse cx="336.83" cy="79.15" rx="3.6" ry="6.23" fill="#150773"/><path d="M294.85 35.06c0-12.54 8.61-17.74 19.22-11.62 10.62 6.13 19.22 21.27 19.22 33.81v15.89" fill="none" stroke="#5333ed" stroke-miterlimit="10" stroke-width="4"/><circle cx="292.34" cy="27.86" r="12.67" fill="#0c022f"/><path d="M241.73 186.17s-.4-25.35 2.48-41.53c1.75-9.82-3.69 2.32-5 6.85a104.83 104.83 0 0 0-2.13 29.33c1.13 11.67 4.65 5.35 4.65 5.35z" fill="#18a0aa"/><path fill="#43414e" d="m66.15 306.82 83.26 48.07 51.54-30.04v-3.81l-83.26-48.07-51.54 29.91v3.94z"/><path fill="#6e7075" d="m66.15 302.88 83.26 48.07 51.54-29.91-83.26-48.07-51.54 29.91z"/><path fill="#84828e" d="m117.77 298.97 30.66 17.7 18.99-11.02-30.67-17.7-18.98 11.02z"/><path fill="#43414e" d="m111.77 302.62 30.67 17.7 4.8-2.75-30.67-17.71-4.8 2.76zm2.2-4.27-4.27-2.47-4.79 2.76 4.26 2.47 4.8-2.76zm-30.17 4.52-6.06-3.48-4.8 2.76 6.06 3.47 4.8-2.75zm12.53-7.22-6.06-3.47-4.79 2.76 6.05 3.47 4.8-2.76zm59.54 48.59-8.58-4.9-4.79 2.76 8.57 4.9 4.8-2.76zm6.1-3.72-11.14-6.28-4.79 2.76 11.13 6.27 4.8-2.75zm6.25-3.36-8.58-4.91-4.79 2.76 8.57 4.9 4.8-2.75zm-65.51-45.26-4.27-2.47-4.79 2.76 4.26 2.46 4.8-2.75zm5.66 3.27-4.27-2.47-4.79 2.76 4.26 2.46 4.8-2.75zm3.76 23.84-4.28-2.46-4.79 2.76 4.27 2.46 4.8-2.76zM89.5 306l-4.27-2.47-4.79 2.76 4.26 2.46 4.8-2.75zm5.66 3.27-4.27-2.47-4.79 2.76 4.26 2.46 4.8-2.75zm5.7 3.29-4.27-2.46-4.79 2.76 4.26 2.46 4.8-2.76zm5.66 3.27-4.27-2.47-4.79 2.76 4.26 2.47 4.8-2.76zm33.75 19.48-4.27-2.46-4.79 2.76 4.26 2.46 4.8-2.76zm5.59 3.24-4.28-2.47-4.79 2.76 4.27 2.47 4.8-2.76zm-28.22-16.25-4.27-2.47-4.79 2.76 4.26 2.46 4.8-2.75zm5.66 3.26-4.27-2.46-4.79 2.76 4.26 2.46 4.8-2.76zm5.7 3.3-4.27-2.47-4.79 2.76 4.26 2.47 4.8-2.76zm5.67 3.27-4.28-2.47-4.79 2.76 4.27 2.46 4.8-2.75zm-19.18-18.24-4.27-2.46-4.79 2.76 4.26 2.46 4.8-2.76zm-22.63-13.01-4.27-2.47-4.79 2.76 4.26 2.46 4.8-2.75zm5.66 3.26-4.27-2.46-4.79 2.76 4.26 2.46 4.8-2.76zm5.7 3.3-4.27-2.47-4.79 2.76 4.27 2.47 4.79-2.76zm5.67 3.27-4.28-2.47-4.79 2.76 4.27 2.46 4.8-2.75zm33.74 19.48-4.27-2.47-4.79 2.76 4.26 2.47 4.8-2.76zm5.59 3.24-4.27-2.47-4.79 2.76 4.26 2.46 4.8-2.75zM121 317.18l-4.27-2.47-4.79 2.76 4.26 2.46 4.8-2.75zm5.67 3.26-4.28-2.46-4.79 2.76 4.27 2.46 4.8-2.76zm5.7 3.3-4.28-2.47-4.79 2.76 4.27 2.46 4.8-2.75zm5.66 3.27-4.27-2.47-4.79 2.76 4.26 2.46 4.8-2.75zm-13.45-15.1-4.27-2.46-4.79 2.76 4.26 2.46 4.8-2.76zm-22.62-13.01-4.28-2.47-4.79 2.76 4.27 2.46 4.8-2.75zm5.66 3.27-4.28-2.47-4.78 2.76 4.26 2.46 4.8-2.75zm5.7 3.29-4.27-2.46-4.79 2.75 4.26 2.47 4.8-2.76zm5.66 3.27-4.27-2.47-4.79 2.76 4.26 2.47 4.8-2.76zm33.75 19.48-4.28-2.46-4.79 2.76 4.27 2.46 4.8-2.76zm5.58 3.24-4.27-2.47-4.79 2.76 4.26 2.46 4.8-2.75zM130.1 315.2l-4.27-2.47-4.8 2.76 4.27 2.46 4.8-2.75zm5.66 3.26-4.27-2.46-4.79 2.76 4.26 2.46 4.8-2.76zm5.7 3.3-4.27-2.47-4.79 2.76 4.26 2.47 4.8-2.76zm5.66 3.27-4.27-2.47-4.79 2.76 4.26 2.46 4.8-2.75zm5.84-4.2-4.27-2.46-4.79 2.76 4.26 2.46 4.8-2.76zm5.66 3.27-4.27-2.47-4.79 2.76 4.26 2.47 4.8-2.76zm5.7 3.29-4.27-2.46-4.79 2.76 4.26 2.46 4.8-2.76zm5.67 3.27-4.28-2.46-4.79 2.76 4.27 2.46 4.8-2.76z"/><path fill="url(#l)" d="m200.76 324.93 22.14 13.37-52.6 30.4-22.85-12.68 53.31-31.09z"/><path d="M127.84 219.69s8 37.85 6.83 53.28 5.35 25.21 16.6 22.32 13.11-31.39 13.05-52.39-33-25.16-33-25.16z" fill="url(#c)"/><path d="M164.32 242.9c-.05-21-33-25.16-33-25.16l-2.55 1.42v5.14c.61 3.12 1.45 7.58 2.32 12.63 2 3 5.57 5.45 9.91 7.06 9.39 3.5 16.26.38 19.51-2.12" fill="#7c4e2e"/><path d="M193.25 296.5s13.58 4.8 34.27 14.39a6.54 6.54 0 0 0 8.82-3.45c2.51-6.19 5.55-17.91 5.71-38.54.31-39.26 32-8.63 29.22 26.06s-24 43.87-31.31 45c-15 2.24-34.14-18.43-47.63-29.55z" fill="url(#m)"/><path d="M242 268.9a152.53 152.53 0 0 1-1.91 24.28c1.56 4 5.45 8.34 10.85 11.46 6.74 3.89 13.89 4.83 18.26 2.84a75.65 75.65 0 0 0 2-12.53c2.8-34.69-28.85-65.31-29.2-26.05zm-45.18 28.92c-2.31-.88-3.57-1.33-3.57-1.33v.19c1.19.42 2.39.8 3.57 1.14z" fill="#7c4e2e"/><path d="M139.47 312.45s17.42-7.22 18.56-7.57c.8-.24 14.43-4.75 22.66-7.47a25.8 25.8 0 0 1 12.56-.92l9 5.81-9 7.23s-11.56 10.64-26.93 14.31l-8.71 5s-1 3.45-6.39 5.72l3-7.38 10.29-7.64-13.84 5.6s-5.61 6.21-12.45 4.34l9-7.45 11-5.76-11.69 4.1s-3.57 6.73-10.52 6.56l8.14-10.22 11.7-5.78-15.29 5.63s-4.53 4.63-9.16 2.81z" fill="url(#n)"/><path fill="#43414e" d="M65.98 239.86 64.01 241l1.97 65.7 81.47 49.32 1.97-1.14v-66.85l-83.44-48.17z"/><path fill="#6e7075" d="m64.01 241 .18 66.95 83.26 48.07v-66.84L64.01 241z"/><path d="M98.88 298.42c1.24.5 2.25-.26 2.25-2.1a6.55 6.55 0 0 0-2.23-4.8 2 2 0 0 1 2.58-.09c2 1.19 3.57 4.43 3.56 7.24s-1.62 4.13-3.59 2.94a7.34 7.34 0 0 1-2.57-3.19z" fill="#fff"/><path d="M273.89 295c10.22-37.7-.94-100-12.71-116.12-.17-.25-.36-.48-.54-.73l-.83-1.12-.07.12c-6.32-7.94-18.2-17-30.41-22.8-16.25-7.67-42.67-21.89-60.68-28.54a77.42 77.42 0 0 0-15.5-3.5A35.06 35.06 0 0 0 120 168.74s5.58 13.75 4.33 50.48a7.2 7.2 0 0 0 1.12 4.53c1.75 3.8 5.46 7.73 10.5 10.64 5.93 3.42 12.17 4.55 16.56 3.42 3.52 12.86 11.83 35.79 27.95 45.09 17.66 10.19 35.39 12 47.36 7.24a27.92 27.92 0 0 0 3.37-1.62 23.09 23.09 0 0 0 6.25-5.09c3.31-3.9 2.45-14 2.45-14a56 56 0 0 1 .31 10.69c0-.11.07-.22.1-.34 0 .11-.07.22-.1.34q-.07.88-.2 1.73c0 4.93 4.51 11.07 11.62 15.17 8.91 5.15 18.55 5.14 21.52 0a6.35 6.35 0 0 0 .45-1c.11-.37.21-.75.31-1.13" fill="url(#o)"/><path d="M273.89 295c-.1.38-.2.75-.31 1.13a6.64 6.64 0 0 0 .31-1.13zM240 281.88q.12-.85.2-1.73a7.32 7.32 0 0 0-.2 1.73z" fill="#120667"/><path d="m193.13 184.58 13.12-22.73a40.27 40.27 0 0 0 5.52-19.28c.06-6.13-1.68-11.46-5.22-14.53-7.08-6.13-18.69-.93-25.93 11.62l-14.52 25.15" fill="none" stroke="#5333ed" stroke-miterlimit="10" stroke-width="4"/><path d="M239.88 269.46s1-27.24-7-42.12l-.67 4.59c2.89 13.72 4.25 36.73-3.33 57.73 0 0 7.38-3.12 9.27-7.23a18.19 18.19 0 0 0 1.76-7.13s.15-4.79-.03-5.84z" fill="#5333ed"/><circle cx="205.82" cy="75.96" r="12.55" fill="#0c022f"/><circle cx="188.96" cy="77.84" r="21.2" fill="#0c022f"/><circle cx="211.41" cy="95.53" r="12.55" fill="#0c022f"/><circle cx="171.17" cy="87.38" r="12.55" fill="#0c022f"/><path data-name="&lt;Path&gt;" d="m209.7 150.77.16-26.86-34.33-6.06v46.22c.12 11.12 29.11 1.3 34.17-13.3z" fill="#9e684d"/><path d="M175.55 124.48c1.87.39 4.4-1.25 6-1.2l3.66.43a67.72 67.72 0 0 1 10.79 3.86c4.33 2.17 11.62.46 13-4.67.34-1.27.6-2.57.85-3.88l-.1 16.88c-.25.26-.48.52-.74.78-9.26 9.39-21.18 14.63-28.06 15.62a6.28 6.28 0 0 1-5.35-1.32z" fill="#7c4e2e"/><path d="m203.62 89.94-5.52-8.21h-35.14s-5.07 40.5 4 60.38c0 0 .24.49.38.73 4.08 7.07 21.26 1.06 33.5-6 8.54-4.93 9.18-14.12 10.52-20.34.25-1.19 3.31-8.87 3.31-8.87-5.65.71-9-1-9-1-.5-.7-1.46-16.12-2.05-16.69z" fill="#b7835f"/><path d="M181.16 104.62a.89.89 0 0 0 1.19.53 24.63 24.63 0 0 1 9.79-1.93 25.64 25.64 0 0 1 5.61 1 .63.63 0 0 0 .76-.83 3 3 0 0 0-2.05-1.82 26 26 0 0 0-7.71-.87c-4.93.25-7.13 1.67-7.13 1.67l-.29 1.14-.22-1-.63.06zm-7.57-.46a.63.63 0 0 1-1 .33 17.66 17.66 0 0 0-5.33-3.12 25.84 25.84 0 0 0-3.89-1 1 1 0 0 1-.75-1.29 1 1 0 0 1 .75-.65 11.75 11.75 0 0 1 4.91.51 11.08 11.08 0 0 1 4.76 2.88l.08 1.35.36-1.2.64.14z" fill="#0c022f"/><path d="M195.38 107.44s-4.58 4.76-13.26 2.72c0 .01 3.4-4.37 13.26-2.72z" fill="#fff"/><path d="M182.12 109.66a22.91 22.91 0 0 1 12.79-2.33" fill="none" stroke="#0c022f" stroke-linecap="round" stroke-linejoin="round" stroke-width=".912"/><path d="M162.81 103s2.12 5 9.36 6a15.68 15.68 0 0 0-9.36-6z" fill="#fff"/><path d="M172.32 108.56a20.78 20.78 0 0 0-9.12-5.56" fill="none" stroke="#0c022f" stroke-linecap="round" stroke-linejoin="round" stroke-width=".912"/><ellipse cx="210.37" cy="112.27" rx="1.4" ry="2.42" fill="#ffc398"/><path d="M171.37 123.53c-.38 1.69 1.69 2.23 4.26 1.93l.85-14a.35.35 0 0 0-.67-.15c-1.4 3.69-4.15 10.96-4.44 12.22z" fill="#9e684d"/><circle cx="186.58" cy="109.35" r="1.76" fill="#0c022f"/><circle cx="166.63" cy="105.79" r="1.55" fill="#0c022f"/><path d="M216.72 108.36a13.23 13.23 0 0 1-4.37 11.14c-3 2.38-5.86 1.25-6.43-2.52a13.23 13.23 0 0 1 4.37-11.14c2.98-2.39 5.86-1.26 6.43 2.52z" fill="#b7835f"/><path d="M209.85 110s2.08-1.89 3.55-3.2c.79-.7 2 1.31 1.22 4-.28.95-1 4.49-3.12 6.24 0 0-.56.5-.49 0 .15-1.1-.65-1-.5-1.67a2.52 2.52 0 0 1 .59-1.09s.61-.42.68-2.07-1-2.42-1.4-2.42a.91.91 0 0 0-.53.21z" fill="#9e684d"/><circle cx="174.24" cy="77.84" r="12.55" fill="#0c022f"/><circle cx="191.67" cy="75.96" r="8.15" fill="#0c022f"/><circle cx="216.82" cy="80.48" r="8.15" fill="#0c022f"/><circle cx="167.49" cy="69.19" r="8.15" fill="#0c022f"/><circle cx="201.14" cy="85.57" r="5.41" fill="#b7835f"/><circle cx="206.85" cy="96.43" r="6.86" fill="#0c022f"/><path d="M170.76 130.23a1.2 1.2 0 0 0 0 2.08c1 .58 2.53.92 5.38 1a15.76 15.76 0 0 0 6.66-1.17 20.16 20.16 0 0 1-5.34-1 7.06 7.06 0 0 0-4.16-.45 3 3 0 0 0-2.54-.46z" fill="#9e684d"/><path d="M152.73 237.76s-2.07-28.84-7.39-41.85-4.46-4.25-4-1 5.28 16.76 3.36 42.63c-.01-.01 1.98 1.58 8.03.22z" fill="#5333ed"/><ellipse cx="158.76" cy="162.31" rx="3.6" ry="6.23" fill="#5333ed"/><path d="M165.66 150.23c.37 0 7.21 4 7.21 4s1.21 3.19 1.21 10.61-7 16.76-7 16.76-3.13-2.4-3.92-2.83c-3.43-1.85-5.92-7.38-5.92-13.93 0-8.08 3.76-14.61 8.42-14.61z" fill="url(#p)"/><ellipse cx="169.66" cy="167.69" rx="8.42" ry="14.58" fill="url(#q)"/><ellipse cx="170.1" cy="167.69" rx="3.6" ry="6.23" fill="#150773"/><g><path d="M188.93 164.91a64.18 64.18 0 0 1 6.11 2.74 29.54 29.54 0 0 1 2.31 11.84c0 7.18-6.88 16.23-6.88 16.23s-3.07-1.83-3.79-2.17c-3.56-1.7-6.18-7.35-6.18-14.06.01-8.05 3.78-14.58 8.43-14.58z" fill="#5333ed"/><ellipse cx="192.97" cy="181.79" rx="8.42" ry="14.58" fill="url(#r)"/><path fill="#5333ed" d="m194.02 188.74 4.94 1.82 1.8-12.05-4.38-2.68-2.36 12.91z"/><path d="m195.3 180.82 11-19a40.27 40.27 0 0 0 5.52-19.28" fill="none" stroke="#5333ed" stroke-linecap="round" stroke-miterlimit="10" stroke-width="4"/><ellipse cx="195.05" cy="182.2" rx="3.91" ry="6.78" fill="#5333ed"/><ellipse cx="199.67" cy="184.45" rx="3.6" ry="6.23" fill="#150773"/></g><path d="M317.67 187.44s-1.09 21.19-.69 31.24a8.8 8.8 0 0 0 2.29 4.47 6.76 6.76 0 0 0 3.29 2.1l1.63 8s-8.32-1.62-10.82-6.94-1.33-18.87-.67-25.18 4.13-18.76 4.97-13.69z" fill="#18a0aa"/><g fill="none" stroke-linejoin="round"><path stroke="#5333ed" d="m524.89 232.77-5.14 2.99v-65.73m0 0-17.04-9.84v65.74l17.04 9.83v-65.73zm5.14-5.37-5.14 2.93-13.43-7.4 34.81-20.43-1.63-.94-36.79 21.37 17.04 9.84 5.04-2.93m15.05-26.59 10.93 6.01"/><path stroke="#2cd4d9" d="m516.9 173.65-11.34-6.55v15.56l11.34 6.54v-15.55z"/></g><g fill="none" stroke="#7269e8" stroke-linejoin="round"><path stroke-linecap="round" d="M574.89 162.28v-11.81m-49.98 12.23V236a4.59 4.59 0 0 0 2.3 4l9.55 5.44a2.7 2.7 0 0 0 2.7 0l4.34-2.52"/><path d="m573.16 149.46 1.74 1-34.38 20a4.8 4.8 0 0 1-4.81 0l-9.71-5.61a2.29 2.29 0 0 1 0-4l33.37-19.39 1.63.94-33.3 19.6a1 1 0 0 0 0 1.69l9 4.91a2.88 2.88 0 0 0 2.82 0zm-.98.55-12.43-6.81m-24.19 72.59-8.23-4.76v24.72l8.23 4.76v-24.72z"/><path stroke-linecap="round" d="M538.11 172.98v70.86"/></g><g fill="none" stroke="#2cd4d9" stroke-linejoin="round"><path d="m564.91 241.89-13.84 8.06v-65.74l36.79-21.37v21.81"/><path d="m551.07 184.21-7-4.04v65.73l7 4.05v-65.74zm36.79-21.37-6.75-3.9-37.04 21.23"/></g><g fill="none" stroke="#9694ea" stroke-linejoin="round"><path d="m564.91 249.45 5.5 3.18 28.91-16.79v-51.11l-.84-1.03-4.46-2.58-28.22 16.17-.89.87v51.29z"/><path d="M599.32 184.19v51.65l-28.91 16.79v-51.65l28.91-16.79zm-28.91 16.79-5.5-3.18v51.65l5.5 3.18v-51.65zm28.91-16.79-5.3-3.07-29.11 16.68"/></g><path fill="none" stroke="#5333ed" stroke-miterlimit="10" opacity=".7" d="M551.46 146.13V108.8l54.17-31.27v49.35l-36.85 21.28"/><path fill="none" stroke="#bbd0f2" stroke-miterlimit="10" opacity=".6" d="m599.32 144.02 39.98 23.08v-36.43l-39.98-23.08v36.43zm52.08.02 25.49 14.71v-23.22l-25.49-14.72v23.23z"/></g></svg>